<svg width="860" height="229" viewBox="0 0 860 229" fill="none" xmlns="http://www.w3.org/2000/svg">
<path fill-rule="evenodd" clip-rule="evenodd" d="M71.6045 82.0719C32.2975 83.1469 0.856314 115.451 1.0455 154.986C1.23736 195.078 33.8856 227.424 73.9673 227.232C114.049 227.04 146.386 194.383 146.194 154.291L71.9518 154.647L71.6045 82.0719ZM73.1662 82.0457L73.3789 82.0447C73.3435 82.0448 73.308 82.045 73.2726 82.0451C73.2371 82.0453 73.2016 82.0455 73.1662 82.0457Z" fill="url(#paint0_linear)"/>
<path fill-rule="evenodd" clip-rule="evenodd" d="M225.135 74.1917C225.135 112.923 195.456 144.722 157.6 148.089L157.601 148.25L155.233 148.261C153.813 148.342 152.383 148.383 150.943 148.383C149.746 148.383 148.556 148.355 147.374 148.299L77.0735 148.635L76.7002 70.622L76.8357 70.6214C78.6985 31.3045 111.165 0 150.943 0C191.918 0 225.135 33.2167 225.135 74.1917ZM79.9873 82.5H142.487V145H147.487V80V77.5H144.987H79.9873V82.5Z" fill="url(#paint1_linear)"/>
<path d="M268.358 133.63C264.158 133.63 260.378 132.91 257.018 131.47C253.658 129.97 251.018 127.87 249.098 125.17C247.178 122.47 246.218 119.32 246.218 115.72H257.198C257.438 118.42 258.488 120.64 260.348 122.38C262.268 124.12 264.938 124.99 268.358 124.99C271.898 124.99 274.658 124.15 276.638 122.47C278.618 120.73 279.608 118.51 279.608 115.81C279.608 113.71 278.978 112 277.718 110.68C276.518 109.36 274.988 108.34 273.128 107.62C271.328 106.9 268.808 106.12 265.568 105.28C261.488 104.2 258.158 103.12 255.578 102.04C253.058 100.9 250.898 99.16 249.098 96.82C247.298 94.48 246.398 91.36 246.398 87.46C246.398 83.86 247.298 80.71 249.098 78.01C250.898 75.31 253.418 73.24 256.658 71.8C259.898 70.36 263.648 69.64 267.908 69.64C273.968 69.64 278.918 71.17 282.758 74.23C286.658 77.23 288.818 81.37 289.238 86.65H277.898C277.718 84.37 276.638 82.42 274.658 80.8C272.678 79.18 270.068 78.37 266.828 78.37C263.888 78.37 261.488 79.12 259.628 80.62C257.768 82.12 256.838 84.28 256.838 87.1C256.838 89.02 257.408 90.61 258.548 91.87C259.748 93.07 261.248 94.03 263.048 94.75C264.848 95.47 267.308 96.25 270.428 97.09C274.568 98.23 277.928 99.37 280.508 100.51C283.148 101.65 285.368 103.42 287.168 105.82C289.028 108.16 289.958 111.31 289.958 115.27C289.958 118.45 289.088 121.45 287.348 124.27C285.668 127.09 283.178 129.37 279.878 131.11C276.638 132.79 272.798 133.63 268.358 133.63ZM362.095 82.6C365.995 82.6 369.475 83.41 372.535 85.03C375.655 86.65 378.085 89.05 379.825 92.23C381.625 95.41 382.525 99.25 382.525 103.75V133H372.355V105.28C372.355 100.84 371.245 97.45 369.025 95.11C366.805 92.71 363.775 91.51 359.935 91.51C356.095 91.51 353.035 92.71 350.755 95.11C348.535 97.45 347.425 100.84 347.425 105.28V133H337.255V105.28C337.255 100.84 336.145 97.45 333.925 95.11C331.705 92.71 328.675 91.51 324.835 91.51C320.995 91.51 317.935 92.71 315.655 95.11C313.435 97.45 312.325 100.84 312.325 105.28V133H302.065V83.41H312.325V89.08C314.005 87.04 316.135 85.45 318.715 84.31C321.295 83.17 324.055 82.6 326.995 82.6C330.955 82.6 334.495 83.44 337.615 85.12C340.735 86.8 343.135 89.23 344.815 92.41C346.315 89.41 348.655 87.04 351.835 85.3C355.015 83.5 358.435 82.6 362.095 82.6ZM392.16 107.98C392.16 103 393.18 98.59 395.22 94.75C397.32 90.91 400.14 87.94 403.68 85.84C407.28 83.68 411.24 82.6 415.56 82.6C419.46 82.6 422.85 83.38 425.73 84.94C428.67 86.44 431.01 88.33 432.75 90.61V83.41H443.1V133H432.75V125.62C431.01 127.96 428.64 129.91 425.64 131.47C422.64 133.03 419.22 133.81 415.38 133.81C411.12 133.81 407.22 132.73 403.68 130.57C400.14 128.35 397.32 125.29 395.22 121.39C393.18 117.43 392.16 112.96 392.16 107.98ZM432.75 108.16C432.75 104.74 432.03 101.77 430.59 99.25C429.21 96.73 427.38 94.81 425.1 93.49C422.82 92.17 420.36 91.51 417.72 91.51C415.08 91.51 412.62 92.17 410.34 93.49C408.06 94.75 406.2 96.64 404.76 99.16C403.38 101.62 402.69 104.56 402.69 107.98C402.69 111.4 403.38 114.4 404.76 116.98C406.2 119.56 408.06 121.54 410.34 122.92C412.68 124.24 415.14 124.9 417.72 124.9C420.36 124.9 422.82 124.24 425.1 122.92C427.38 121.6 429.21 119.68 430.59 117.16C432.03 114.58 432.75 111.58 432.75 108.16ZM466.836 90.61C468.336 88.09 470.316 86.14 472.776 84.76C475.296 83.32 478.266 82.6 481.686 82.6V93.22H479.076C475.056 93.22 471.996 94.24 469.896 96.28C467.856 98.32 466.836 101.86 466.836 106.9V133H456.576V83.41H466.836V90.61ZM503.087 91.78V119.23C503.087 121.09 503.507 122.44 504.347 123.28C505.247 124.06 506.747 124.45 508.847 124.45H515.147V133H507.047C502.427 133 498.887 131.92 496.427 129.76C493.967 127.6 492.737 124.09 492.737 119.23V91.78H486.887V83.41H492.737V71.08H503.087V83.41H515.147V91.78H503.087ZM590.484 70.45V133H580.224V90.16L561.144 133H554.034L534.864 90.16V133H524.604V70.45H535.674L557.634 119.5L579.504 70.45H590.484ZM600.549 107.98C600.549 103 601.569 98.59 603.609 94.75C605.709 90.91 608.529 87.94 612.069 85.84C615.669 83.68 619.629 82.6 623.949 82.6C627.849 82.6 631.239 83.38 634.119 84.94C637.059 86.44 639.399 88.33 641.139 90.61V83.41H651.489V133H641.139V125.62C639.399 127.96 637.029 129.91 634.029 131.47C631.029 133.03 627.609 133.81 623.769 133.81C619.509 133.81 615.609 132.73 612.069 130.57C608.529 128.35 605.709 125.29 603.609 121.39C601.569 117.43 600.549 112.96 600.549 107.98ZM641.139 108.16C641.139 104.74 640.419 101.77 638.979 99.25C637.599 96.73 635.769 94.81 633.489 93.49C631.209 92.17 628.749 91.51 626.109 91.51C623.469 91.51 621.009 92.17 618.729 93.49C616.449 94.75 614.589 96.64 613.149 99.16C611.769 101.62 611.079 104.56 611.079 107.98C611.079 111.4 611.769 114.4 613.149 116.98C614.589 119.56 616.449 121.54 618.729 122.92C621.069 124.24 623.529 124.9 626.109 124.9C628.749 124.9 631.209 124.24 633.489 122.92C635.769 121.6 637.599 119.68 638.979 117.16C640.419 114.58 641.139 111.58 641.139 108.16ZM676.935 91.78V119.23C676.935 121.09 677.355 122.44 678.195 123.28C679.095 124.06 680.595 124.45 682.695 124.45H688.995V133H680.895C676.275 133 672.735 131.92 670.275 129.76C667.815 127.6 666.585 124.09 666.585 119.23V91.78H660.735V83.41H666.585V71.08H676.935V83.41H688.995V91.78H676.935ZM695.031 108.16C695.031 103.06 696.051 98.59 698.091 94.75C700.191 90.85 703.071 87.85 706.731 85.75C710.391 83.65 714.591 82.6 719.331 82.6C725.331 82.6 730.281 84.04 734.181 86.92C738.141 89.74 740.811 93.79 742.191 99.07H731.121C730.221 96.61 728.781 94.69 726.801 93.31C724.821 91.93 722.331 91.24 719.331 91.24C715.131 91.24 711.771 92.74 709.251 95.74C706.791 98.68 705.561 102.82 705.561 108.16C705.561 113.5 706.791 117.67 709.251 120.67C711.771 123.67 715.131 125.17 719.331 125.17C725.271 125.17 729.201 122.56 731.121 117.34H742.191C740.751 122.38 738.051 126.4 734.091 129.4C730.131 132.34 725.211 133.81 719.331 133.81C714.591 133.81 710.391 132.76 706.731 130.66C703.071 128.5 700.191 125.5 698.091 121.66C696.051 117.76 695.031 113.26 695.031 108.16ZM778.066 82.6C781.846 82.6 785.206 83.41 788.146 85.03C791.146 86.65 793.486 89.05 795.166 92.23C796.906 95.41 797.776 99.25 797.776 103.75V133H787.606V105.28C787.606 100.84 786.496 97.45 784.276 95.11C782.056 92.71 779.026 91.51 775.186 91.51C771.346 91.51 768.286 92.71 766.006 95.11C763.786 97.45 762.676 100.84 762.676 105.28V133H752.416V66.4H762.676V89.17C764.416 87.07 766.606 85.45 769.246 84.31C771.946 83.17 774.886 82.6 778.066 82.6Z" fill="#024CC3"/>
<path d="M823 76.65C821.3 76.65 819.7 76.33 818.2 75.69C816.7 75.05 815.38 74.17 814.24 73.05C813.12 71.91 812.24 70.59 811.6 69.09C810.96 67.59 810.64 65.99 810.64 64.29C810.64 62.57 810.96 60.97 811.6 59.49C812.24 57.99 813.12 56.68 814.24 55.56C815.38 54.42 816.7 53.53 818.2 52.89C819.7 52.25 821.3 51.93 823 51.93C824.72 51.93 826.32 52.25 827.8 52.89C829.3 53.53 830.61 54.42 831.73 55.56C832.87 56.68 833.76 57.99 834.4 59.49C835.04 60.97 835.36 62.57 835.36 64.29C835.36 65.99 835.04 67.59 834.4 69.09C833.76 70.59 832.87 71.91 831.73 73.05C830.61 74.17 829.3 75.05 827.8 75.69C826.32 76.33 824.72 76.65 823 76.65ZM823 74.97C824.48 74.97 825.86 74.7 827.14 74.16C828.44 73.6 829.58 72.83 830.56 71.85C831.54 70.87 832.3 69.74 832.84 68.46C833.4 67.16 833.68 65.77 833.68 64.29C833.68 62.81 833.4 61.43 832.84 60.15C832.3 58.85 831.54 57.71 830.56 56.73C829.58 55.75 828.44 54.99 827.14 54.45C825.86 53.89 824.48 53.61 823 53.61C821.52 53.61 820.13 53.89 818.83 54.45C817.55 54.99 816.42 55.75 815.44 56.73C814.46 57.71 813.69 58.85 813.13 60.15C812.59 61.43 812.32 62.81 812.32 64.29C812.32 65.77 812.59 67.16 813.13 68.46C813.69 69.74 814.46 70.87 815.44 71.85C816.42 72.83 817.55 73.6 818.83 74.16C820.13 74.7 821.52 74.97 823 74.97ZM819.1 70.65V57.78H822.94C824.72 57.78 825.99 58.08 826.75 58.68C827.53 59.26 827.92 60.2 827.92 61.5C827.92 63.08 827.04 64.2 825.28 64.86L828.88 70.65H826.48L823.39 65.4H821.17V70.65H819.1ZM821.17 63.81H822.94C824.82 63.81 825.76 63.06 825.76 61.56C825.76 60.72 825.5 60.16 824.98 59.88C824.48 59.58 823.76 59.43 822.82 59.43H821.17V63.81Z" fill="#024CC3"/>
<path d="M264.782 172.888H254.306L252.506 178H248.222L257.186 152.944H261.938L270.902 178H266.582L264.782 172.888ZM263.63 169.54L259.562 157.912L255.458 169.54H263.63ZM288.255 161.116C288.951 160.156 289.899 159.376 291.099 158.776C292.323 158.152 293.679 157.84 295.167 157.84C296.919 157.84 298.503 158.26 299.919 159.1C301.335 159.94 302.451 161.14 303.267 162.7C304.083 164.236 304.491 166 304.491 167.992C304.491 169.984 304.083 171.772 303.267 173.356C302.451 174.916 301.323 176.14 299.883 177.028C298.467 177.892 296.895 178.324 295.167 178.324C293.631 178.324 292.263 178.024 291.063 177.424C289.887 176.824 288.951 176.056 288.255 175.12V178H284.151V151.36H288.255V161.116ZM300.315 167.992C300.315 166.624 300.027 165.448 299.451 164.464C298.899 163.456 298.155 162.7 297.219 162.196C296.307 161.668 295.323 161.404 294.267 161.404C293.235 161.404 292.251 161.668 291.315 162.196C290.403 162.724 289.659 163.492 289.083 164.5C288.531 165.508 288.255 166.696 288.255 168.064C288.255 169.432 288.531 170.632 289.083 171.664C289.659 172.672 290.403 173.44 291.315 173.968C292.251 174.496 293.235 174.76 294.267 174.76C295.323 174.76 296.307 174.496 297.219 173.968C298.155 173.416 298.899 172.624 299.451 171.592C300.027 170.56 300.315 169.36 300.315 167.992ZM326.73 167.596C326.73 168.34 326.682 169.012 326.586 169.612H311.43C311.55 171.196 312.138 172.468 313.194 173.428C314.25 174.388 315.546 174.868 317.082 174.868C319.29 174.868 320.85 173.944 321.762 172.096H326.19C325.59 173.92 324.498 175.42 322.914 176.596C321.354 177.748 319.41 178.324 317.082 178.324C315.186 178.324 313.482 177.904 311.97 177.064C310.482 176.2 309.306 175 308.442 173.464C307.602 171.904 307.182 170.104 307.182 168.064C307.182 166.024 307.59 164.236 308.406 162.7C309.246 161.14 310.41 159.94 311.898 159.1C313.41 158.26 315.138 157.84 317.082 157.84C318.954 157.84 320.622 158.248 322.086 159.064C323.55 159.88 324.69 161.032 325.506 162.52C326.322 163.984 326.73 165.676 326.73 167.596ZM322.446 166.3C322.422 164.788 321.882 163.576 320.826 162.664C319.77 161.752 318.462 161.296 316.902 161.296C315.486 161.296 314.274 161.752 313.266 162.664C312.258 163.552 311.658 164.764 311.466 166.3H322.446ZM335.557 161.512V172.492C335.557 173.236 335.725 173.776 336.061 174.112C336.421 174.424 337.021 174.58 337.861 174.58H340.381V178H337.141C335.293 178 333.877 177.568 332.893 176.704C331.909 175.84 331.417 174.436 331.417 172.492V161.512H329.077V158.164H331.417V153.232H335.557V158.164H340.381V161.512H335.557ZM348.951 161.512V172.492C348.951 173.236 349.119 173.776 349.455 174.112C349.815 174.424 350.415 174.58 351.255 174.58H353.775V178H350.535C348.687 178 347.271 177.568 346.287 176.704C345.303 175.84 344.811 174.436 344.811 172.492V161.512H342.471V158.164H344.811V153.232H348.951V158.164H353.775V161.512H348.951ZM375.738 167.596C375.738 168.34 375.69 169.012 375.594 169.612H360.438C360.558 171.196 361.146 172.468 362.202 173.428C363.258 174.388 364.554 174.868 366.09 174.868C368.298 174.868 369.858 173.944 370.77 172.096H375.198C374.598 173.92 373.506 175.42 371.922 176.596C370.362 177.748 368.418 178.324 366.09 178.324C364.194 178.324 362.49 177.904 360.978 177.064C359.49 176.2 358.314 175 357.45 173.464C356.61 171.904 356.19 170.104 356.19 168.064C356.19 166.024 356.598 164.236 357.414 162.7C358.254 161.14 359.418 159.94 360.906 159.1C362.418 158.26 364.146 157.84 366.09 157.84C367.962 157.84 369.63 158.248 371.094 159.064C372.558 159.88 373.698 161.032 374.514 162.52C375.33 163.984 375.738 165.676 375.738 167.596ZM371.454 166.3C371.43 164.788 370.89 163.576 369.834 162.664C368.778 161.752 367.47 161.296 365.91 161.296C364.494 161.296 363.282 161.752 362.274 162.664C361.266 163.552 360.666 164.764 360.474 166.3H371.454ZM383.88 161.044C384.48 160.036 385.272 159.256 386.256 158.704C387.264 158.128 388.452 157.84 389.82 157.84V162.088H388.776C387.168 162.088 385.944 162.496 385.104 163.312C384.288 164.128 383.88 165.544 383.88 167.56V178H379.776V158.164H383.88V161.044ZM429.584 158.164L423.428 178H419.108L415.112 163.348L411.116 178H406.796L400.604 158.164H404.78L408.92 174.112L413.132 158.164H417.416L421.448 174.04L425.552 158.164H429.584ZM441.255 178.324C439.383 178.324 437.691 177.904 436.179 177.064C434.667 176.2 433.479 175 432.615 173.464C431.751 171.904 431.319 170.104 431.319 168.064C431.319 166.048 431.763 164.26 432.651 162.7C433.539 161.14 434.751 159.94 436.287 159.1C437.823 158.26 439.539 157.84 441.435 157.84C443.331 157.84 445.047 158.26 446.583 159.1C448.119 159.94 449.331 161.14 450.219 162.7C451.107 164.26 451.551 166.048 451.551 168.064C451.551 170.08 451.095 171.868 450.183 173.428C449.271 174.988 448.023 176.2 446.439 177.064C444.879 177.904 443.151 178.324 441.255 178.324ZM441.255 174.76C442.311 174.76 443.295 174.508 444.207 174.004C445.143 173.5 445.899 172.744 446.475 171.736C447.051 170.728 447.339 169.504 447.339 168.064C447.339 166.624 447.063 165.412 446.511 164.428C445.959 163.42 445.227 162.664 444.315 162.16C443.403 161.656 442.419 161.404 441.363 161.404C440.307 161.404 439.323 161.656 438.411 162.16C437.523 162.664 436.815 163.42 436.287 164.428C435.759 165.412 435.495 166.624 435.495 168.064C435.495 170.2 436.035 171.856 437.115 173.032C438.219 174.184 439.599 174.76 441.255 174.76ZM459.712 161.044C460.312 160.036 461.104 159.256 462.088 158.704C463.096 158.128 464.284 157.84 465.652 157.84V162.088H464.608C463 162.088 461.776 162.496 460.936 163.312C460.12 164.128 459.712 165.544 459.712 167.56V178H455.608V158.164H459.712V161.044ZM473.529 151.36V178H469.425V151.36H473.529ZM477.549 167.992C477.549 166 477.957 164.236 478.773 162.7C479.613 161.164 480.741 159.976 482.157 159.136C483.597 158.272 485.193 157.84 486.945 157.84C488.241 157.84 489.513 158.128 490.761 158.704C492.033 159.256 493.041 160 493.785 160.936V151.36H497.925V178H493.785V175.012C493.113 175.972 492.177 176.764 490.977 177.388C489.801 178.012 488.445 178.324 486.909 178.324C485.181 178.324 483.597 177.892 482.157 177.028C480.741 176.14 479.613 174.916 478.773 173.356C477.957 171.772 477.549 169.984 477.549 167.992ZM493.785 168.064C493.785 166.696 493.497 165.508 492.921 164.5C492.369 163.492 491.637 162.724 490.725 162.196C489.813 161.668 488.829 161.404 487.773 161.404C486.717 161.404 485.733 161.668 484.821 162.196C483.909 162.7 483.165 163.456 482.589 164.464C482.037 165.448 481.761 166.624 481.761 167.992C481.761 169.36 482.037 170.56 482.589 171.592C483.165 172.624 483.909 173.416 484.821 173.968C485.757 174.496 486.741 174.76 487.773 174.76C488.829 174.76 489.813 174.496 490.725 173.968C491.637 173.44 492.369 172.672 492.921 171.664C493.497 170.632 493.785 169.432 493.785 168.064ZM520.983 161.512H517.311V178H513.171V161.512H510.831V158.164H513.171V156.76C513.171 154.48 513.771 152.824 514.971 151.792C516.195 150.736 518.103 150.208 520.695 150.208V153.628C519.447 153.628 518.571 153.868 518.067 154.348C517.563 154.804 517.311 155.608 517.311 156.76V158.164H520.983V161.512ZM533.224 178.324C531.352 178.324 529.66 177.904 528.148 177.064C526.636 176.2 525.448 175 524.584 173.464C523.72 171.904 523.288 170.104 523.288 168.064C523.288 166.048 523.732 164.26 524.62 162.7C525.508 161.14 526.72 159.94 528.256 159.1C529.792 158.26 531.508 157.84 533.404 157.84C535.3 157.84 537.016 158.26 538.552 159.1C540.088 159.94 541.3 161.14 542.188 162.7C543.076 164.26 543.52 166.048 543.52 168.064C543.52 170.08 543.064 171.868 542.152 173.428C541.24 174.988 539.992 176.2 538.408 177.064C536.848 177.904 535.12 178.324 533.224 178.324ZM533.224 174.76C534.28 174.76 535.264 174.508 536.176 174.004C537.112 173.5 537.868 172.744 538.444 171.736C539.02 170.728 539.308 169.504 539.308 168.064C539.308 166.624 539.032 165.412 538.48 164.428C537.928 163.42 537.196 162.664 536.284 162.16C535.372 161.656 534.388 161.404 533.332 161.404C532.276 161.404 531.292 161.656 530.38 162.16C529.492 162.664 528.784 163.42 528.256 164.428C527.728 165.412 527.464 166.624 527.464 168.064C527.464 170.2 528.004 171.856 529.084 173.032C530.188 174.184 531.568 174.76 533.224 174.76ZM551.681 161.044C552.281 160.036 553.073 159.256 554.057 158.704C555.065 158.128 556.253 157.84 557.621 157.84V162.088H556.577C554.969 162.088 553.745 162.496 552.905 163.312C552.089 164.128 551.681 165.544 551.681 167.56V178H547.577V158.164H551.681V161.044ZM585.829 172.888H575.353L573.553 178H569.269L578.233 152.944H582.985L591.949 178H587.629L585.829 172.888ZM584.677 169.54L580.609 157.912L576.505 169.54H584.677ZM599.951 152.98V178H595.847V152.98H599.951ZM613.322 168.064C613.322 166.024 613.73 164.236 614.546 162.7C615.386 161.14 616.538 159.94 618.002 159.1C619.466 158.26 621.146 157.84 623.042 157.84C625.442 157.84 627.422 158.416 628.982 159.568C630.566 160.696 631.634 162.316 632.186 164.428H627.758C627.398 163.444 626.822 162.676 626.03 162.124C625.238 161.572 624.242 161.296 623.042 161.296C621.362 161.296 620.018 161.896 619.01 163.096C618.026 164.272 617.534 165.928 617.534 168.064C617.534 170.2 618.026 171.868 619.01 173.068C620.018 174.268 621.362 174.868 623.042 174.868C625.418 174.868 626.99 173.824 627.758 171.736H632.186C631.61 173.752 630.53 175.36 628.946 176.56C627.362 177.736 625.394 178.324 623.042 178.324C621.146 178.324 619.466 177.904 618.002 177.064C616.538 176.2 615.386 175 614.546 173.464C613.73 171.904 613.322 170.104 613.322 168.064ZM634.908 167.992C634.908 166 635.316 164.236 636.132 162.7C636.972 161.164 638.1 159.976 639.516 159.136C640.956 158.272 642.54 157.84 644.268 157.84C645.828 157.84 647.184 158.152 648.336 158.776C649.512 159.376 650.448 160.132 651.144 161.044V158.164H655.284V178H651.144V175.048C650.448 175.984 649.5 176.764 648.3 177.388C647.1 178.012 645.732 178.324 644.196 178.324C642.492 178.324 640.932 177.892 639.516 177.028C638.1 176.14 636.972 174.916 636.132 173.356C635.316 171.772 634.908 169.984 634.908 167.992ZM651.144 168.064C651.144 166.696 650.856 165.508 650.28 164.5C649.728 163.492 648.996 162.724 648.084 162.196C647.172 161.668 646.188 161.404 645.132 161.404C644.076 161.404 643.092 161.668 642.18 162.196C641.268 162.7 640.524 163.456 639.948 164.464C639.396 165.448 639.12 166.624 639.12 167.992C639.12 169.36 639.396 170.56 639.948 171.592C640.524 172.624 641.268 173.416 642.18 173.968C643.116 174.496 644.1 174.76 645.132 174.76C646.188 174.76 647.172 174.496 648.084 173.968C648.996 173.44 649.728 172.672 650.28 171.664C650.856 170.632 651.144 169.432 651.144 168.064ZM664.779 161.044C665.379 160.036 666.171 159.256 667.155 158.704C668.163 158.128 669.351 157.84 670.719 157.84V162.088H669.675C668.067 162.088 666.843 162.496 666.003 163.312C665.187 164.128 664.779 165.544 664.779 167.56V178H660.675V158.164H664.779V161.044ZM692.671 167.596C692.671 168.34 692.623 169.012 692.527 169.612H677.371C677.491 171.196 678.079 172.468 679.135 173.428C680.191 174.388 681.487 174.868 683.023 174.868C685.231 174.868 686.791 173.944 687.703 172.096H692.131C691.531 173.92 690.439 175.42 688.855 176.596C687.295 177.748 685.351 178.324 683.023 178.324C681.127 178.324 679.423 177.904 677.911 177.064C676.423 176.2 675.247 175 674.383 173.464C673.543 171.904 673.123 170.104 673.123 168.064C673.123 166.024 673.531 164.236 674.347 162.7C675.187 161.14 676.351 159.94 677.839 159.1C679.351 158.26 681.079 157.84 683.023 157.84C684.895 157.84 686.563 158.248 688.027 159.064C689.491 159.88 690.631 161.032 691.447 162.52C692.263 163.984 692.671 165.676 692.671 167.596ZM688.387 166.3C688.363 164.788 687.823 163.576 686.767 162.664C685.711 161.752 684.403 161.296 682.843 161.296C681.427 161.296 680.215 161.752 679.207 162.664C678.199 163.552 677.599 164.764 677.407 166.3H688.387ZM714.89 167.596C714.89 168.34 714.842 169.012 714.746 169.612H699.59C699.71 171.196 700.298 172.468 701.354 173.428C702.41 174.388 703.706 174.868 705.242 174.868C707.45 174.868 709.01 173.944 709.922 172.096H714.35C713.75 173.92 712.658 175.42 711.074 176.596C709.514 177.748 707.57 178.324 705.242 178.324C703.346 178.324 701.642 177.904 700.13 177.064C698.642 176.2 697.466 175 696.602 173.464C695.762 171.904 695.342 170.104 695.342 168.064C695.342 166.024 695.75 164.236 696.566 162.7C697.406 161.14 698.57 159.94 700.058 159.1C701.57 158.26 703.298 157.84 705.242 157.84C707.114 157.84 708.782 158.248 710.246 159.064C711.71 159.88 712.85 161.032 713.666 162.52C714.482 163.984 714.89 165.676 714.89 167.596ZM710.606 166.3C710.582 164.788 710.042 163.576 708.986 162.664C707.93 161.752 706.622 161.296 705.062 161.296C703.646 161.296 702.434 161.752 701.426 162.664C700.418 163.552 699.818 164.764 699.626 166.3H710.606ZM723.033 161.044C723.633 160.036 724.425 159.256 725.409 158.704C726.417 158.128 727.605 157.84 728.973 157.84V162.088H727.929C726.321 162.088 725.097 162.496 724.257 163.312C723.441 164.128 723.033 165.544 723.033 167.56V178H718.929V158.164H723.033V161.044ZM766.109 157.84C767.669 157.84 769.061 158.164 770.285 158.812C771.533 159.46 772.505 160.42 773.201 161.692C773.921 162.964 774.281 164.5 774.281 166.3V178H770.213V166.912C770.213 165.136 769.769 163.78 768.881 162.844C767.993 161.884 766.781 161.404 765.245 161.404C763.709 161.404 762.485 161.884 761.573 162.844C760.685 163.78 760.241 165.136 760.241 166.912V178H756.173V166.912C756.173 165.136 755.729 163.78 754.841 162.844C753.953 161.884 752.741 161.404 751.205 161.404C749.669 161.404 748.445 161.884 747.533 162.844C746.645 163.78 746.201 165.136 746.201 166.912V178H742.097V158.164H746.201V160.432C746.873 159.616 747.725 158.98 748.757 158.524C749.789 158.068 750.893 157.84 752.069 157.84C753.653 157.84 755.069 158.176 756.317 158.848C757.565 159.52 758.525 160.492 759.197 161.764C759.797 160.564 760.733 159.616 762.005 158.92C763.277 158.2 764.645 157.84 766.109 157.84ZM778.135 167.992C778.135 166 778.543 164.236 779.359 162.7C780.199 161.164 781.327 159.976 782.743 159.136C784.183 158.272 785.767 157.84 787.495 157.84C789.055 157.84 790.411 158.152 791.563 158.776C792.739 159.376 793.675 160.132 794.371 161.044V158.164H798.511V178H794.371V175.048C793.675 175.984 792.727 176.764 791.527 177.388C790.327 178.012 788.959 178.324 787.423 178.324C785.719 178.324 784.159 177.892 782.743 177.028C781.327 176.14 780.199 174.916 779.359 173.356C778.543 171.772 778.135 169.984 778.135 167.992ZM794.371 168.064C794.371 166.696 794.083 165.508 793.507 164.5C792.955 163.492 792.223 162.724 791.311 162.196C790.399 161.668 789.415 161.404 788.359 161.404C787.303 161.404 786.319 161.668 785.407 162.196C784.495 162.7 783.751 163.456 783.175 164.464C782.623 165.448 782.347 166.624 782.347 167.992C782.347 169.36 782.623 170.56 783.175 171.592C783.751 172.624 784.495 173.416 785.407 173.968C786.343 174.496 787.327 174.76 788.359 174.76C789.415 174.76 790.399 174.496 791.311 173.968C792.223 173.44 792.955 172.672 793.507 171.664C794.083 170.632 794.371 169.432 794.371 168.064ZM808.689 161.512V172.492C808.689 173.236 808.857 173.776 809.193 174.112C809.553 174.424 810.153 174.58 810.993 174.58H813.513V178H810.273C808.425 178 807.009 177.568 806.025 176.704C805.041 175.84 804.549 174.436 804.549 172.492V161.512H802.209V158.164H804.549V153.232H808.689V158.164H813.513V161.512H808.689ZM815.928 168.064C815.928 166.024 816.336 164.236 817.152 162.7C817.992 161.14 819.144 159.94 820.608 159.1C822.072 158.26 823.752 157.84 825.648 157.84C828.048 157.84 830.028 158.416 831.588 159.568C833.172 160.696 834.24 162.316 834.792 164.428H830.364C830.004 163.444 829.428 162.676 828.636 162.124C827.844 161.572 826.848 161.296 825.648 161.296C823.968 161.296 822.624 161.896 821.616 163.096C820.632 164.272 820.14 165.928 820.14 168.064C820.14 170.2 820.632 171.868 821.616 173.068C822.624 174.268 823.968 174.868 825.648 174.868C828.024 174.868 829.596 173.824 830.364 171.736H834.792C834.216 173.752 833.136 175.36 831.552 176.56C829.968 177.736 828 178.324 825.648 178.324C823.752 178.324 822.072 177.904 820.608 177.064C819.144 176.2 817.992 175 817.152 173.464C816.336 171.904 815.928 170.104 815.928 168.064ZM849.142 157.84C850.654 157.84 851.998 158.164 853.174 158.812C854.374 159.46 855.31 160.42 855.982 161.692C856.678 162.964 857.026 164.5 857.026 166.3V178H852.958V166.912C852.958 165.136 852.514 163.78 851.626 162.844C850.738 161.884 849.526 161.404 847.99 161.404C846.454 161.404 845.23 161.884 844.318 162.844C843.43 163.78 842.986 165.136 842.986 166.912V178H838.882V151.36H842.986V160.468C843.682 159.628 844.558 158.98 845.614 158.524C846.694 158.068 847.87 157.84 849.142 157.84Z" fill="black"/>
<defs>
<linearGradient id="paint0_linear" x1="146.84" y1="143.932" x2="0.239847" y2="144.46" gradientUnits="userSpaceOnUse">
<stop stop-color="#0363FE"/>
<stop offset="0.901042" stop-color="#5DE7FE"/>
</linearGradient>
<linearGradient id="paint1_linear" x1="91.7758" y1="74.3177" x2="217.657" y2="74.3177" gradientUnits="userSpaceOnUse">
<stop stop-color="#46EBD5"/>
<stop offset="0.973958" stop-color="#60EFFF"/>
</linearGradient>
</defs>
</svg>
