<svg width="837" height="228" viewBox="0 0 837 228" fill="none" xmlns="http://www.w3.org/2000/svg">
<path fill-rule="evenodd" clip-rule="evenodd" d="M71.6045 81.3741C32.2975 82.4491 0.856299 114.753 1.04549 154.288C1.23735 194.38 33.8856 226.726 73.9673 226.534C114.049 226.342 146.386 193.686 146.194 153.593L71.9518 153.949L71.6045 81.3741ZM73.1662 81.3479L73.3789 81.3469C73.3435 81.347 73.308 81.3472 73.2725 81.3473C73.2371 81.3475 73.2016 81.3477 73.1662 81.3479Z" fill="url(#paint0_linear)"/>
<path fill-rule="evenodd" clip-rule="evenodd" d="M226.835 74.1917C226.835 112.923 197.156 144.722 159.3 148.089L159.301 148.25L156.933 148.261C155.513 148.342 154.083 148.383 152.643 148.383C151.447 148.383 150.257 148.355 149.074 148.299L78.7737 148.635L78.4004 70.622L78.5359 70.6214C80.3987 31.3045 112.865 0 152.643 0C193.618 0 226.835 33.2167 226.835 74.1917ZM81.6875 82.5H144.188V145H149.188V80V77.5H146.688H81.6875V82.5Z" fill="url(#paint1_linear)"/>
<path d="M272.36 134.63C268.16 134.63 264.38 133.91 261.02 132.47C257.66 130.97 255.02 128.87 253.1 126.17C251.18 123.47 250.22 120.32 250.22 116.72H261.2C261.44 119.42 262.49 121.64 264.35 123.38C266.27 125.12 268.94 125.99 272.36 125.99C275.9 125.99 278.66 125.15 280.64 123.47C282.62 121.73 283.61 119.51 283.61 116.81C283.61 114.71 282.98 113 281.72 111.68C280.52 110.36 278.99 109.34 277.13 108.62C275.33 107.9 272.81 107.12 269.57 106.28C265.49 105.2 262.16 104.12 259.58 103.04C257.06 101.9 254.9 100.16 253.1 97.82C251.3 95.48 250.4 92.36 250.4 88.46C250.4 84.86 251.3 81.71 253.1 79.01C254.9 76.31 257.42 74.24 260.66 72.8C263.9 71.36 267.65 70.64 271.91 70.64C277.97 70.64 282.92 72.17 286.76 75.23C290.66 78.23 292.82 82.37 293.24 87.65H281.9C281.72 85.37 280.64 83.42 278.66 81.8C276.68 80.18 274.07 79.37 270.83 79.37C267.89 79.37 265.49 80.12 263.63 81.62C261.77 83.12 260.84 85.28 260.84 88.1C260.84 90.02 261.41 91.61 262.55 92.87C263.75 94.07 265.25 95.03 267.05 95.75C268.85 96.47 271.31 97.25 274.43 98.09C278.57 99.23 281.93 100.37 284.51 101.51C287.15 102.65 289.37 104.42 291.17 106.82C293.03 109.16 293.96 112.31 293.96 116.27C293.96 119.45 293.09 122.45 291.35 125.27C289.67 128.09 287.18 130.37 283.88 132.11C280.64 133.79 276.8 134.63 272.36 134.63ZM366.096 83.6C369.996 83.6 373.476 84.41 376.536 86.03C379.656 87.65 382.086 90.05 383.826 93.23C385.626 96.41 386.526 100.25 386.526 104.75V134H376.356V106.28C376.356 101.84 375.246 98.45 373.026 96.11C370.806 93.71 367.776 92.51 363.936 92.51C360.096 92.51 357.036 93.71 354.756 96.11C352.536 98.45 351.426 101.84 351.426 106.28V134H341.256V106.28C341.256 101.84 340.146 98.45 337.926 96.11C335.706 93.71 332.676 92.51 328.836 92.51C324.996 92.51 321.936 93.71 319.656 96.11C317.436 98.45 316.326 101.84 316.326 106.28V134H306.066V84.41H316.326V90.08C318.006 88.04 320.136 86.45 322.716 85.31C325.296 84.17 328.056 83.6 330.996 83.6C334.956 83.6 338.496 84.44 341.616 86.12C344.736 87.8 347.136 90.23 348.816 93.41C350.316 90.41 352.656 88.04 355.836 86.3C359.016 84.5 362.436 83.6 366.096 83.6ZM396.162 108.98C396.162 104 397.182 99.59 399.222 95.75C401.322 91.91 404.142 88.94 407.682 86.84C411.282 84.68 415.242 83.6 419.562 83.6C423.462 83.6 426.852 84.38 429.732 85.94C432.672 87.44 435.012 89.33 436.752 91.61V84.41H447.102V134H436.752V126.62C435.012 128.96 432.642 130.91 429.642 132.47C426.642 134.03 423.222 134.81 419.382 134.81C415.122 134.81 411.222 133.73 407.682 131.57C404.142 129.35 401.322 126.29 399.222 122.39C397.182 118.43 396.162 113.96 396.162 108.98ZM436.752 109.16C436.752 105.74 436.032 102.77 434.592 100.25C433.212 97.73 431.382 95.81 429.102 94.49C426.822 93.17 424.362 92.51 421.722 92.51C419.082 92.51 416.622 93.17 414.342 94.49C412.062 95.75 410.202 97.64 408.762 100.16C407.382 102.62 406.692 105.56 406.692 108.98C406.692 112.4 407.382 115.4 408.762 117.98C410.202 120.56 412.062 122.54 414.342 123.92C416.682 125.24 419.142 125.9 421.722 125.9C424.362 125.9 426.822 125.24 429.102 123.92C431.382 122.6 433.212 120.68 434.592 118.16C436.032 115.58 436.752 112.58 436.752 109.16ZM470.838 91.61C472.338 89.09 474.318 87.14 476.778 85.76C479.298 84.32 482.268 83.6 485.688 83.6V94.22H483.078C479.058 94.22 475.998 95.24 473.898 97.28C471.858 99.32 470.838 102.86 470.838 107.9V134H460.578V84.41H470.838V91.61ZM507.089 92.78V120.23C507.089 122.09 507.509 123.44 508.349 124.28C509.249 125.06 510.749 125.45 512.849 125.45H519.149V134H511.049C506.429 134 502.889 132.92 500.429 130.76C497.969 128.6 496.739 125.09 496.739 120.23V92.78H490.889V84.41H496.739V72.08H507.089V84.41H519.149V92.78H507.089ZM594.485 71.45V134H584.225V91.16L565.145 134H558.035L538.865 91.16V134H528.605V71.45H539.675L561.635 120.5L583.505 71.45H594.485ZM604.551 108.98C604.551 104 605.571 99.59 607.611 95.75C609.711 91.91 612.531 88.94 616.071 86.84C619.671 84.68 623.631 83.6 627.951 83.6C631.851 83.6 635.241 84.38 638.121 85.94C641.061 87.44 643.401 89.33 645.141 91.61V84.41H655.491V134H645.141V126.62C643.401 128.96 641.031 130.91 638.031 132.47C635.031 134.03 631.611 134.81 627.771 134.81C623.511 134.81 619.611 133.73 616.071 131.57C612.531 129.35 609.711 126.29 607.611 122.39C605.571 118.43 604.551 113.96 604.551 108.98ZM645.141 109.16C645.141 105.74 644.421 102.77 642.981 100.25C641.601 97.73 639.771 95.81 637.491 94.49C635.211 93.17 632.751 92.51 630.111 92.51C627.471 92.51 625.011 93.17 622.731 94.49C620.451 95.75 618.591 97.64 617.151 100.16C615.771 102.62 615.081 105.56 615.081 108.98C615.081 112.4 615.771 115.4 617.151 117.98C618.591 120.56 620.451 122.54 622.731 123.92C625.071 125.24 627.531 125.9 630.111 125.9C632.751 125.9 635.211 125.24 637.491 123.92C639.771 122.6 641.601 120.68 642.981 118.16C644.421 115.58 645.141 112.58 645.141 109.16ZM680.937 92.78V120.23C680.937 122.09 681.357 123.44 682.197 124.28C683.097 125.06 684.597 125.45 686.697 125.45H692.997V134H684.897C680.277 134 676.737 132.92 674.277 130.76C671.817 128.6 670.587 125.09 670.587 120.23V92.78H664.737V84.41H670.587V72.08H680.937V84.41H692.997V92.78H680.937ZM699.033 109.16C699.033 104.06 700.053 99.59 702.093 95.75C704.193 91.85 707.073 88.85 710.733 86.75C714.393 84.65 718.593 83.6 723.333 83.6C729.333 83.6 734.283 85.04 738.183 87.92C742.143 90.74 744.813 94.79 746.193 100.07H735.123C734.223 97.61 732.783 95.69 730.803 94.31C728.823 92.93 726.333 92.24 723.333 92.24C719.133 92.24 715.773 93.74 713.253 96.74C710.793 99.68 709.563 103.82 709.563 109.16C709.563 114.5 710.793 118.67 713.253 121.67C715.773 124.67 719.133 126.17 723.333 126.17C729.273 126.17 733.203 123.56 735.123 118.34H746.193C744.753 123.38 742.053 127.4 738.093 130.4C734.133 133.34 729.213 134.81 723.333 134.81C718.593 134.81 714.393 133.76 710.733 131.66C707.073 129.5 704.193 126.5 702.093 122.66C700.053 118.76 699.033 114.26 699.033 109.16ZM782.068 83.6C785.848 83.6 789.208 84.41 792.148 86.03C795.148 87.65 797.488 90.05 799.168 93.23C800.908 96.41 801.778 100.25 801.778 104.75V134H791.608V106.28C791.608 101.84 790.498 98.45 788.278 96.11C786.058 93.71 783.028 92.51 779.188 92.51C775.348 92.51 772.288 93.71 770.008 96.11C767.788 98.45 766.678 101.84 766.678 106.28V134H756.418V67.4H766.678V90.17C768.418 88.07 770.608 86.45 773.248 85.31C775.948 84.17 778.888 83.6 782.068 83.6Z" fill="#024CC3"/>
<path d="M824 77.65C822.3 77.65 820.7 77.33 819.2 76.69C817.7 76.05 816.38 75.17 815.24 74.05C814.12 72.91 813.24 71.59 812.6 70.09C811.96 68.59 811.64 66.99 811.64 65.29C811.64 63.57 811.96 61.97 812.6 60.49C813.24 58.99 814.12 57.68 815.24 56.56C816.38 55.42 817.7 54.53 819.2 53.89C820.7 53.25 822.3 52.93 824 52.93C825.72 52.93 827.32 53.25 828.8 53.89C830.3 54.53 831.61 55.42 832.73 56.56C833.87 57.68 834.76 58.99 835.4 60.49C836.04 61.97 836.36 63.57 836.36 65.29C836.36 66.99 836.04 68.59 835.4 70.09C834.76 71.59 833.87 72.91 832.73 74.05C831.61 75.17 830.3 76.05 828.8 76.69C827.32 77.33 825.72 77.65 824 77.65ZM824 75.97C825.48 75.97 826.86 75.7 828.14 75.16C829.44 74.6 830.58 73.83 831.56 72.85C832.54 71.87 833.3 70.74 833.84 69.46C834.4 68.16 834.68 66.77 834.68 65.29C834.68 63.81 834.4 62.43 833.84 61.15C833.3 59.85 832.54 58.71 831.56 57.73C830.58 56.75 829.44 55.99 828.14 55.45C826.86 54.89 825.48 54.61 824 54.61C822.52 54.61 821.13 54.89 819.83 55.45C818.55 55.99 817.42 56.75 816.44 57.73C815.46 58.71 814.69 59.85 814.13 61.15C813.59 62.43 813.32 63.81 813.32 65.29C813.32 66.77 813.59 68.16 814.13 69.46C814.69 70.74 815.46 71.87 816.44 72.85C817.42 73.83 818.55 74.6 819.83 75.16C821.13 75.7 822.52 75.97 824 75.97ZM820.1 71.65V58.78H823.94C825.72 58.78 826.99 59.08 827.75 59.68C828.53 60.26 828.92 61.2 828.92 62.5C828.92 64.08 828.04 65.2 826.28 65.86L829.88 71.65H827.48L824.39 66.4H822.17V71.65H820.1ZM822.17 64.81H823.94C825.82 64.81 826.76 64.06 826.76 62.56C826.76 61.72 826.5 61.16 825.98 60.88C825.48 60.58 824.76 60.43 823.82 60.43H822.17V64.81Z" fill="#024CC3"/>
<path d="M268.784 173.888H258.308L256.508 179H252.224L261.188 153.944H265.94L274.904 179H270.584L268.784 173.888ZM267.632 170.54L263.564 158.912L259.46 170.54H267.632ZM282.906 153.98V179H278.802V153.98H282.906ZM316.977 179L313.881 175.904C312.681 177.104 311.373 178.004 309.957 178.604C308.541 179.18 306.957 179.468 305.205 179.468C303.429 179.468 301.857 179.156 300.489 178.532C299.121 177.908 298.065 177.02 297.321 175.868C296.577 174.692 296.205 173.336 296.205 171.8C296.205 170.072 296.697 168.536 297.681 167.192C298.665 165.824 300.129 164.744 302.073 163.952C301.377 163.112 300.885 162.332 300.597 161.612C300.309 160.868 300.165 160.052 300.165 159.164C300.165 158.06 300.441 157.076 300.993 156.212C301.569 155.348 302.385 154.664 303.441 154.16C304.497 153.656 305.721 153.404 307.113 153.404C308.529 153.404 309.729 153.68 310.713 154.232C311.721 154.76 312.465 155.492 312.945 156.428C313.449 157.364 313.653 158.408 313.557 159.56H309.453C309.477 158.672 309.261 157.988 308.805 157.508C308.349 157.004 307.725 156.752 306.933 156.752C306.141 156.752 305.493 156.992 304.989 157.472C304.509 157.928 304.269 158.492 304.269 159.164C304.269 159.812 304.449 160.46 304.809 161.108C305.193 161.732 305.853 162.548 306.789 163.556L313.413 170.144L315.969 165.932H320.397L317.157 171.476L316.257 172.952L322.341 179H316.977ZM305.205 175.976C307.461 175.976 309.453 175.052 311.181 173.204L304.557 166.544C301.725 167.672 300.309 169.376 300.309 171.656C300.309 172.88 300.765 173.912 301.677 174.752C302.589 175.568 303.765 175.976 305.205 175.976ZM360.736 153.98V179H356.632V161.864L349 179H346.156L338.488 161.864V179H334.384V153.98H338.812L347.596 173.6L356.344 153.98H360.736ZM364.762 168.992C364.762 167 365.17 165.236 365.986 163.7C366.826 162.164 367.954 160.976 369.37 160.136C370.81 159.272 372.394 158.84 374.122 158.84C375.682 158.84 377.038 159.152 378.19 159.776C379.366 160.376 380.302 161.132 380.998 162.044V159.164H385.138V179H380.998V176.048C380.302 176.984 379.354 177.764 378.154 178.388C376.954 179.012 375.586 179.324 374.05 179.324C372.346 179.324 370.786 178.892 369.37 178.028C367.954 177.14 366.826 175.916 365.986 174.356C365.17 172.772 364.762 170.984 364.762 168.992ZM380.998 169.064C380.998 167.696 380.71 166.508 380.134 165.5C379.582 164.492 378.85 163.724 377.938 163.196C377.026 162.668 376.042 162.404 374.986 162.404C373.93 162.404 372.946 162.668 372.034 163.196C371.122 163.7 370.378 164.456 369.802 165.464C369.25 166.448 368.974 167.624 368.974 168.992C368.974 170.36 369.25 171.56 369.802 172.592C370.378 173.624 371.122 174.416 372.034 174.968C372.97 175.496 373.954 175.76 374.986 175.76C376.042 175.76 377.026 175.496 377.938 174.968C378.85 174.44 379.582 173.672 380.134 172.664C380.71 171.632 380.998 170.432 380.998 169.064ZM389.16 169.064C389.16 167.024 389.568 165.236 390.384 163.7C391.224 162.14 392.376 160.94 393.84 160.1C395.304 159.26 396.984 158.84 398.88 158.84C401.28 158.84 403.26 159.416 404.82 160.568C406.404 161.696 407.472 163.316 408.024 165.428H403.596C403.236 164.444 402.66 163.676 401.868 163.124C401.076 162.572 400.08 162.296 398.88 162.296C397.2 162.296 395.856 162.896 394.848 164.096C393.864 165.272 393.372 166.928 393.372 169.064C393.372 171.2 393.864 172.868 394.848 174.068C395.856 175.268 397.2 175.868 398.88 175.868C401.256 175.868 402.828 174.824 403.596 172.736H408.024C407.448 174.752 406.368 176.36 404.784 177.56C403.2 178.736 401.232 179.324 398.88 179.324C396.984 179.324 395.304 178.904 393.84 178.064C392.376 177.2 391.224 176 390.384 174.464C389.568 172.904 389.16 171.104 389.16 169.064ZM422.374 158.84C423.886 158.84 425.23 159.164 426.406 159.812C427.606 160.46 428.542 161.42 429.214 162.692C429.91 163.964 430.258 165.5 430.258 167.3V179H426.19V167.912C426.19 166.136 425.746 164.78 424.858 163.844C423.97 162.884 422.758 162.404 421.222 162.404C419.686 162.404 418.462 162.884 417.55 163.844C416.662 164.78 416.218 166.136 416.218 167.912V179H412.114V152.36H416.218V161.468C416.914 160.628 417.79 159.98 418.846 159.524C419.926 159.068 421.102 158.84 422.374 158.84ZM437.581 156.536C436.837 156.536 436.213 156.284 435.709 155.78C435.205 155.276 434.953 154.652 434.953 153.908C434.953 153.164 435.205 152.54 435.709 152.036C436.213 151.532 436.837 151.28 437.581 151.28C438.301 151.28 438.913 151.532 439.417 152.036C439.921 152.54 440.173 153.164 440.173 153.908C440.173 154.652 439.921 155.276 439.417 155.78C438.913 156.284 438.301 156.536 437.581 156.536ZM439.597 159.164V179H435.493V159.164H439.597ZM454.993 158.84C456.553 158.84 457.945 159.164 459.169 159.812C460.417 160.46 461.389 161.42 462.085 162.692C462.781 163.964 463.129 165.5 463.129 167.3V179H459.061V167.912C459.061 166.136 458.617 164.78 457.729 163.844C456.841 162.884 455.629 162.404 454.093 162.404C452.557 162.404 451.333 162.884 450.421 163.844C449.533 164.78 449.089 166.136 449.089 167.912V179H444.985V159.164H449.089V161.432C449.761 160.616 450.613 159.98 451.645 159.524C452.701 159.068 453.817 158.84 454.993 158.84ZM486.544 168.596C486.544 169.34 486.496 170.012 486.4 170.612H471.244C471.364 172.196 471.952 173.468 473.008 174.428C474.064 175.388 475.36 175.868 476.896 175.868C479.104 175.868 480.664 174.944 481.576 173.096H486.004C485.404 174.92 484.312 176.42 482.728 177.596C481.168 178.748 479.224 179.324 476.896 179.324C475 179.324 473.296 178.904 471.784 178.064C470.296 177.2 469.12 176 468.256 174.464C467.416 172.904 466.996 171.104 466.996 169.064C466.996 167.024 467.404 165.236 468.22 163.7C469.06 162.14 470.224 160.94 471.712 160.1C473.224 159.26 474.952 158.84 476.896 158.84C478.768 158.84 480.436 159.248 481.9 160.064C483.364 160.88 484.504 162.032 485.32 163.52C486.136 164.984 486.544 166.676 486.544 168.596ZM482.26 167.3C482.236 165.788 481.696 164.576 480.64 163.664C479.584 162.752 478.276 162.296 476.716 162.296C475.3 162.296 474.088 162.752 473.08 163.664C472.072 164.552 471.472 165.764 471.28 167.3H482.26ZM504.038 175.688H512.498V179H499.934V153.98H504.038V175.688ZM534.11 168.596C534.11 169.34 534.062 170.012 533.966 170.612H518.81C518.93 172.196 519.518 173.468 520.574 174.428C521.63 175.388 522.926 175.868 524.462 175.868C526.67 175.868 528.23 174.944 529.142 173.096H533.57C532.97 174.92 531.878 176.42 530.294 177.596C528.734 178.748 526.79 179.324 524.462 179.324C522.566 179.324 520.862 178.904 519.35 178.064C517.862 177.2 516.686 176 515.822 174.464C514.982 172.904 514.562 171.104 514.562 169.064C514.562 167.024 514.97 165.236 515.786 163.7C516.626 162.14 517.79 160.94 519.278 160.1C520.79 159.26 522.518 158.84 524.462 158.84C526.334 158.84 528.002 159.248 529.466 160.064C530.93 160.88 532.07 162.032 532.886 163.52C533.702 164.984 534.11 166.676 534.11 168.596ZM529.826 167.3C529.802 165.788 529.262 164.576 528.206 163.664C527.15 162.752 525.842 162.296 524.282 162.296C522.866 162.296 521.654 162.752 520.646 163.664C519.638 164.552 519.038 165.764 518.846 167.3H529.826ZM536.781 168.992C536.781 167 537.189 165.236 538.005 163.7C538.845 162.164 539.973 160.976 541.389 160.136C542.829 159.272 544.413 158.84 546.141 158.84C547.701 158.84 549.057 159.152 550.209 159.776C551.385 160.376 552.321 161.132 553.017 162.044V159.164H557.157V179H553.017V176.048C552.321 176.984 551.373 177.764 550.173 178.388C548.973 179.012 547.605 179.324 546.069 179.324C544.365 179.324 542.805 178.892 541.389 178.028C539.973 177.14 538.845 175.916 538.005 174.356C537.189 172.772 536.781 170.984 536.781 168.992ZM553.017 169.064C553.017 167.696 552.729 166.508 552.153 165.5C551.601 164.492 550.869 163.724 549.957 163.196C549.045 162.668 548.061 162.404 547.005 162.404C545.949 162.404 544.965 162.668 544.053 163.196C543.141 163.7 542.397 164.456 541.821 165.464C541.269 166.448 540.993 167.624 540.993 168.992C540.993 170.36 541.269 171.56 541.821 172.592C542.397 173.624 543.141 174.416 544.053 174.968C544.989 175.496 545.973 175.76 547.005 175.76C548.061 175.76 549.045 175.496 549.957 174.968C550.869 174.44 551.601 173.672 552.153 172.664C552.729 171.632 553.017 170.432 553.017 169.064ZM566.652 162.044C567.252 161.036 568.044 160.256 569.028 159.704C570.036 159.128 571.224 158.84 572.592 158.84V163.088H571.548C569.94 163.088 568.716 163.496 567.876 164.312C567.06 165.128 566.652 166.544 566.652 168.56V179H562.548V159.164H566.652V162.044ZM586.372 158.84C587.932 158.84 589.324 159.164 590.548 159.812C591.796 160.46 592.768 161.42 593.464 162.692C594.16 163.964 594.508 165.5 594.508 167.3V179H590.44V167.912C590.44 166.136 589.996 164.78 589.108 163.844C588.22 162.884 587.008 162.404 585.472 162.404C583.936 162.404 582.712 162.884 581.8 163.844C580.912 164.78 580.468 166.136 580.468 167.912V179H576.364V159.164H580.468V161.432C581.14 160.616 581.992 159.98 583.024 159.524C584.08 159.068 585.196 158.84 586.372 158.84ZM601.831 156.536C601.087 156.536 600.463 156.284 599.959 155.78C599.455 155.276 599.203 154.652 599.203 153.908C599.203 153.164 599.455 152.54 599.959 152.036C600.463 151.532 601.087 151.28 601.831 151.28C602.551 151.28 603.163 151.532 603.667 152.036C604.171 152.54 604.423 153.164 604.423 153.908C604.423 154.652 604.171 155.276 603.667 155.78C603.163 156.284 602.551 156.536 601.831 156.536ZM603.847 159.164V179H599.743V159.164H603.847ZM619.243 158.84C620.803 158.84 622.195 159.164 623.419 159.812C624.667 160.46 625.639 161.42 626.335 162.692C627.031 163.964 627.379 165.5 627.379 167.3V179H623.311V167.912C623.311 166.136 622.867 164.78 621.979 163.844C621.091 162.884 619.879 162.404 618.343 162.404C616.807 162.404 615.583 162.884 614.671 163.844C613.783 164.78 613.339 166.136 613.339 167.912V179H609.235V159.164H613.339V161.432C614.011 160.616 614.863 159.98 615.895 159.524C616.951 159.068 618.067 158.84 619.243 158.84ZM640.606 158.84C642.142 158.84 643.498 159.152 644.674 159.776C645.874 160.376 646.81 161.132 647.482 162.044V159.164H651.622V179.324C651.622 181.148 651.238 182.768 650.47 184.184C649.702 185.624 648.586 186.752 647.122 187.568C645.682 188.384 643.954 188.792 641.938 188.792C639.25 188.792 637.018 188.156 635.242 186.884C633.466 185.636 632.458 183.932 632.218 181.772H636.286C636.598 182.804 637.258 183.632 638.266 184.256C639.298 184.904 640.522 185.228 641.938 185.228C643.594 185.228 644.926 184.724 645.934 183.716C646.966 182.708 647.482 181.244 647.482 179.324V176.012C646.786 176.948 645.838 177.74 644.638 178.388C643.462 179.012 642.118 179.324 640.606 179.324C638.878 179.324 637.294 178.892 635.854 178.028C634.438 177.14 633.31 175.916 632.47 174.356C631.654 172.772 631.246 170.984 631.246 168.992C631.246 167 631.654 165.236 632.47 163.7C633.31 162.164 634.438 160.976 635.854 160.136C637.294 159.272 638.878 158.84 640.606 158.84ZM647.482 169.064C647.482 167.696 647.194 166.508 646.618 165.5C646.066 164.492 645.334 163.724 644.422 163.196C643.51 162.668 642.526 162.404 641.47 162.404C640.414 162.404 639.43 162.668 638.518 163.196C637.606 163.7 636.862 164.456 636.286 165.464C635.734 166.448 635.458 167.624 635.458 168.992C635.458 170.36 635.734 171.56 636.286 172.592C636.862 173.624 637.606 174.416 638.518 174.968C639.454 175.496 640.438 175.76 641.47 175.76C642.526 175.76 643.51 175.496 644.422 174.968C645.334 174.44 646.066 173.672 646.618 172.664C647.194 171.632 647.482 170.432 647.482 169.064Z" fill="black"/>
<defs>
<linearGradient id="paint0_linear" x1="146.84" y1="143.234" x2="0.239832" y2="143.762" gradientUnits="userSpaceOnUse">
<stop stop-color="#1883FF"/>
<stop offset="1" stop-color="#0E15AD"/>
</linearGradient>
<linearGradient id="paint1_linear" x1="78.4004" y1="84.8191" x2="226.896" y2="84.995" gradientUnits="userSpaceOnUse">
<stop stop-color="#0363FE"/>
<stop offset="0.901042" stop-color="#5DE7FE"/>
</linearGradient>
</defs>
</svg>
